<?xml version="1.0" encoding="UTF-8"?><svg id="navbar-logo" xmlns="http://www.w3.org/2000/svg" viewBox="0 0 700 700"><path d="m680,20v660H20V20h660m20-20H0v700h700V0h0Z" fill="#f2f2f2"/><path d="m636.65,114.36c-.79,2.29-6.48,6.48-17.06,12.58-8.2,4.57-18.38,14.1-30.54,28.58-9.26,10.93-19.83,22.49-31.73,34.68l-48.4,52.6c-57.39,63.27-103.27,110.91-137.65,142.92-11.11,10.42-23.14,22.11-36.1,35.06l-118.61,115.48c-.53,4.83,2.78,7.24,9.92,7.24,23.27,0,76.29-3.94,159.07-11.82,15.87-1.52,29.35-2.29,40.46-2.29,19.83,0,36.23-.51,49.19-1.52,12.95-1.01,24.2-1.52,33.72-1.52,69.28,0,103.93,14.86,103.93,44.59,0,24.65-9.66,36.97-28.96,36.97-9.26,0-17.06-.76-23.4-2.29-33.85-8.13-69.02-12.2-105.52-12.2-18.51,0-74.18,2.8-167,8.38l-25.39,1.52c-54.22,3.31-100.5,9.91-138.84,19.82-22.21,5.84-35.17,8.77-38.88,8.77-16.93,0-25.39-9.28-25.39-27.82s5.29-30.87,15.87-38.49c54.48-38.11,133.29-106.84,236.42-206.19,103.14-99.34,172.02-171.89,206.67-217.62l-9.52-.38c-22.21-.76-65.19,1.78-128.92,7.62-13.75,1.27-28.03,2.42-42.84,3.43-14.28,1.02-26.32,2.04-36.1,3.05-34.12,3.56-61.88,5.34-83.3,5.34-31.21,0-53.35-4.32-66.44-12.96-13.09-8.64-19.64-18.42-19.64-29.35,0-6.6,3.7-14.23,11.11-22.87,7.4-8.64,13.35-12.96,17.85-12.96,3.17,0,8.99,1.4,17.45,4.19,8.99,3.31,16.52,4.95,22.61,4.95,24.33,0,46.54.32,66.64.95,20.09.64,46.81-.32,80.13-2.86,32.79-2.54,64.52-4.32,95.2-5.34,42.05-1.01,85.15-5.46,129.32-13.34,22.74-4.06,40.07-6.1,51.97-6.1s18.25,7.88,18.25,23.63c0,11.69-1.85,20.2-5.55,25.54Z" fill="#f2f2f2"/></svg>